<?xml version="1.0" encoding="UTF-8"?> <!-- Generator: Adobe Illustrator 21.1.0, SVG Export Plug-In . SVG Version: 6.00 Build 0) --> <svg xmlns="http://www.w3.org/2000/svg" xmlns:xlink="http://www.w3.org/1999/xlink" id="Layer_1" x="0px" y="0px" viewBox="0 0 138 76.6" style="enable-background:new 0 0 138 76.6;" xml:space="preserve"> <style type="text/css"> .st0{display:none;} .st1{display:inline;opacity:0.6;} .st2{fill:#FFFFFF;} .st3{display:inline;opacity:0.8;fill:#FFFFFF;enable-background:new ;} .st4{fill:none;stroke:#444444;stroke-width:4;stroke-miterlimit:10;} .st5{fill:none;stroke:#111111;stroke-width:4;stroke-miterlimit:10;} .st6{fill:none;stroke:#333333;stroke-miterlimit:10;} .st7{fill:#333333;} </style> <g class="st0"> <g class="st1"> <path class="st2" d="M91.7,0.4c-0.2,0.1-0.4,0.2-0.6,0.5c-0.1,0.3-0.2,0.6-0.2,1s0.1,0.7,0.2,0.9C91.2,3,91.4,3.1,91.6,3 c0.2,0,0.4-0.2,0.6-0.4c0.1-0.3,0.2-0.6,0.2-1s0-0.7-0.2-0.9C92.1,0.4,91.9,0.4,91.7,0.4z"></path> <path class="st2" d="M92.3-1.8L84,0.5c-0.3,0.1-1.1,0.3-1.2,1.5v2.6c0,0,0,0.1,0,0.2c0,0.5,0.1,1.2,1.1,1L89.3,5l0.6-0.1l0,0V5 l0,0l0,0l0,0c0.4,0.2,0.7,0.3,1.2,0.5v5.4h4.3v-5c0-1,0-1,1-1.2c0.2,0,0.5-0.2,0.5-0.4c0-0.4,0.1-0.6,0.3-0.7l0,0l5.2-0.8 c0.9-0.2,1.1-1,1.1-1.4c0,0,0,0,0-0.1v-1.5L92.3-1.8z M85.9,4.6h-0.2c-0.1,0-0.1-0.1-0.1-0.1V4.1c0-0.1,0-0.1,0.1-0.1h0.2 C86,4,86,4,86,4.1v0.4C86,4.6,85.9,4.6,85.9,4.6z M87.9,4c-0.2,0.2-0.4,0.3-0.7,0.4c-0.3,0.1-0.5,0-0.6-0.1 c-0.1-0.1-0.2-0.3-0.3-0.5c0-0.1,0-0.2,0.1-0.2l0.2-0.1c0.1,0,0.1,0,0.2,0.1c0,0.1,0.1,0.2,0.1,0.2c0.1,0.1,0.2,0.1,0.4,0 c0.3-0.1,0.5-0.2,0.5-0.5c0-0.1,0-0.2-0.1-0.2c0,0-0.1-0.1-0.2-0.1s-0.2,0-0.4-0.1c-0.2,0-0.3,0-0.3-0.1c-0.1,0-0.1-0.1-0.2-0.1 s-0.1-0.1-0.1-0.1c0-0.1-0.1-0.1-0.1-0.2s0-0.2,0-0.3c0-0.3,0.1-0.6,0.2-0.8C86.7,1.1,87,1,87.2,0.9c0.3-0.1,0.5,0,0.6,0.1 c0.1,0.1,0.2,0.2,0.3,0.5c0,0.1,0,0.2-0.1,0.2l-0.2,0.1c-0.1,0-0.1,0-0.2-0.1c0-0.1-0.1-0.1-0.1-0.2c-0.1-0.1-0.2-0.1-0.3,0 c-0.3,0.1-0.4,0.2-0.4,0.5c0,0.1,0,0.2,0,0.2l0.1,0.1c0.1,0,0.2,0,0.4,0.1c0.2,0,0.4,0,0.5,0.1c0.1,0,0.2,0.1,0.2,0.2 c0.1,0.1,0.1,0.2,0.1,0.3c0,0.1,0,0.2,0,0.4C88.1,3.6,88.1,3.8,87.9,4z M90.3,0.7c0,0.1,0,0.1-0.1,0.1l-0.5,0.1L89.6,1v2.9 c0,0.1,0,0.1-0.1,0.1l-0.4,0.1c0,0-0.1,0-0.1-0.1V1.2c0,0,0-0.1-0.1-0.1l-0.6,0.1c0,0-0.1,0-0.1-0.1V0.7c0,0,0-0.1,0.1-0.1 l1.8-0.5c0,0,0.1,0,0.1,0.1L90.3,0.7L90.3,0.7z M93,1.4c0,0.4-0.1,0.8-0.2,1.1c-0.1,0.3-0.3,0.6-0.5,0.8c-0.2,0.2-0.4,0.3-0.7,0.4 c-0.4,0.1-0.7,0-0.9-0.3c-0.2-0.3-0.3-0.7-0.3-1.3c0-0.6,0.1-1.1,0.3-1.5c0.2-0.4,0.5-0.6,1-0.7c0.4-0.1,0.7,0,1,0.3 C92.9,0.4,93,0.8,93,1.4z M95.2,1.4l0.5,1.1c0,0.1,0,0.2-0.1,0.2l-0.4,0.2c-0.1,0-0.1,0-0.1-0.1l-0.5-1.1c0-0.1-0.1-0.1-0.1-0.1 L94,1.7c-0.1,0-0.1,0.1-0.1,0.2v1.2c0,0.1,0,0.1-0.1,0.2l-0.3,0.1c-0.1,0-0.2-0.1-0.2-0.2l0.1-3.5c0-0.1,0-0.1,0.1-0.2l1.3-0.3 c0.3-0.1,0.6,0,0.8,0.1c0.2,0.2,0.2,0.4,0.2,0.8c0,0.3-0.1,0.6-0.2,0.8C95.5,1.1,95.4,1.3,95.2,1.4C95.2,1.3,95.2,1.4,95.2,1.4z M98.6,1.7v0.5c0,0.1,0,0.1-0.1,0.1l-2.2,0.4c0,0-0.1,0-0.1-0.1l0.2-3.5c0,0,0-0.1,0.1-0.1l0.6,0.1l0,0l0,0L97-0.8l-0.1,0.9 c0,0.1,0,0.1,0.1,0.1l1.5-0.3c0,0,0.1,0,0.1,0.1v0.5c0,0,0,0.1-0.1,0.1L97,0.9L96.9,1l-0.1,0.9c0,0,0,0.1,0.1,0.1L98.6,1.7 C98.6,1.6,98.6,1.6,98.6,1.7z"></path> <path class="st2" d="M94.7-0.3l-0.6,0.2C94-0.1,94,0,94,0.1v0.8c0,0.1,0.1,0.2,0.2,0.2L94.8,1c0.2,0,0.3-0.1,0.4-0.2 c0.1-0.1,0.1-0.3,0.2-0.5C95.3-0.2,95.1-0.3,94.7-0.3z"></path> </g> <path class="st3" d="M107.7-5.1v3.7c0,0.7,0,2-1.6,1.8L103.7,0l-5.3-0.8l-1-0.2l-4.6-0.7h-0.3h-0.2l-2.9,0.8 c0.1-0.1,0.2-0.2,0.3-0.2c0.2-0.1,0.4-0.1,0.6-0.2v-0.1c-0.1,0-0.3,0-0.4,0c-0.4,0-0.6-0.1-0.6-0.6c0,0,0,0,0-0.1v-0.1l-0.4-0.1 l-9.6-1.6c-1.3-0.2-1.6-1.5-1.6-2.2l0.1-7.6c0-0.8,0.3-1.7,1.7-1.3l26.6,7.6C106.4-7.2,107.7-6.8,107.7-5.1z M85-4.8 c0.1,0,0.2-0.1,0.2-0.2l0.3-6.4c0-0.1-0.1-0.3-0.2-0.3L84.4-12c-0.1,0-0.2,0-0.3,0.2l-1,3.4C83.1-8.3,83-8.1,83-8l-0.2,0.6 c0,0.1-0.1,0.1-0.1,0l-0.1-0.5c0-0.1,0-0.3-0.1-0.4c0-0.1,0-0.3-0.1-0.4l-0.6-3.7c0-0.1-0.1-0.2-0.3-0.3l-1-0.3 c-0.1,0-0.2,0-0.2,0.2L80-6.1c0,0.1,0.1,0.2,0.2,0.3l0.6,0.1c0.1,0,0.2-0.1,0.2-0.2l0.3-3.9c0-0.1,0-0.3,0-0.5v-1.1 c0-0.1,0-0.1,0,0l0.2,1.5c0,0.1,0,0.3,0.1,0.4l0.6,3.8c0,0.1,0.1,0.2,0.3,0.3l0.3,0.1c0.1,0,0.2,0,0.3-0.2l1-3.3 c0-0.1,0.1-0.3,0.1-0.4l0.4-1.3c0-0.1,0-0.1,0,0l-0.1,0.8c0,0.1,0,0.4,0,0.4s0,0.2,0,0.3l-0.2,3.8c0,0.1,0.1,0.2,0.2,0.3L85-4.8z M90.1-3.8c0.1,0,0.2-0.1,0.2-0.2l-1.2-6.5c0-0.1-0.1-0.2-0.3-0.3L88.1-11c-0.1,0-0.2,0-0.3,0.2l-1.9,6c0,0.1,0,0.2,0.2,0.3 l0.6,0.1c0.1,0,0.2,0,0.3-0.2l0.4-1.2c0-0.1,0.2-0.2,0.3-0.2L89-5.7c0.1,0,0.2,0.2,0.3,0.3L89.5-4c0,0.1,0.1,0.2,0.3,0.3L90.1-3.8z M88.5-9.3v0.2c0,0.1,0,0.3,0.1,0.4l0.3,1.6c0,0.1-0.1,0.2-0.2,0.2l-0.9-0.2c-0.1,0-0.2-0.1-0.2-0.3l0.5-1.8c0-0.1,0.1-0.4,0.1-0.5 s0-0.1,0-0.2s0,0,0,0.1C88.4-9.6,88.5-9.4,88.5-9.3z M91.6-3.5c0.1,0,0.2-0.1,0.2-0.2l0.2-6c0-0.1-0.1-0.3-0.2-0.3l-0.4-0.1 c-0.1,0-0.2,0-0.2,0.2L91-3.8c0,0.1,0.1,0.2,0.2,0.3L91.6-3.5z M96-2.6c0.1,0,0.2-0.1,0.2-0.2l0.1-5.8c0-0.1-0.1-0.3-0.2-0.3 L95.8-9c-0.1,0-0.2,0-0.2,0.2l-0.1,3.2c0,0.1,0,0.3,0,0.5v0.8c0,0.1,0,0.1-0.1,0l-1.5-4.9c0-0.1-0.2-0.2-0.3-0.3l-0.5-0.2 c-0.1,0-0.2,0-0.2,0.2l-0.2,6c0,0.1,0.1,0.3,0.2,0.3l0.3,0.1c0.1,0,0.2-0.1,0.2-0.2l0.1-3.4c0-0.1,0-0.3,0-0.5v-0.7 c0-0.1,0-0.1,0.1,0L95.1-3c0,0.1,0.2,0.2,0.3,0.3L96-2.6z M101.3-4c0-0.2-0.1-0.4-0.2-0.5c-0.1-0.2-0.2-0.3-0.3-0.4 c-0.1-0.1-0.4-0.3-0.7-0.5c-0.3-0.2-0.5-0.3-0.6-0.4S99.3-6,99.3-6.1c0-0.1-0.1-0.2-0.1-0.4c0-0.5,0.2-0.6,0.7-0.5 c0.2,0.1,0.4,0.2,0.5,0.3c0.1,0.1,0.2,0.3,0.2,0.5c0,0.1,0.1,0.1,0.1,0.1h0.4c0.1,0,0.2-0.1,0.1-0.2c-0.1-0.4-0.2-0.8-0.4-1 c-0.2-0.3-0.5-0.5-1-0.6S99-8,98.7-7.8c-0.2,0.2-0.4,0.6-0.4,1.1c0,0.2,0,0.4,0,0.6s0.1,0.3,0.1,0.5s0.1,0.3,0.2,0.4 c0.1,0.1,0.2,0.2,0.3,0.3c0.1,0.1,0.3,0.2,0.6,0.4c0.3,0.2,0.5,0.3,0.6,0.4c0.1,0.1,0.2,0.2,0.2,0.3c0.1,0.1,0.1,0.3,0.1,0.4 c0,0.5-0.3,0.7-0.8,0.6C99.3-2.9,99.2-3,99-3.1c-0.1-0.2-0.2-0.4-0.3-0.6c0-0.1-0.1-0.1-0.2-0.1c-0.1,0-0.3,0-0.5,0 c-0.1,0-0.2,0.1-0.1,0.2c0.1,0.5,0.2,0.9,0.5,1.2c0.3,0.3,0.6,0.5,1.1,0.6s0.9,0,1.1-0.2c0.2-0.2,0.4-0.7,0.4-1.2 C101.3-3.5,101.3-3.7,101.3-4z M104.3-5.7c0.1,0,0.2,0,0.2-0.1v-0.6c0-0.1-0.1-0.2-0.1-0.2l-2.5-0.7c-0.1,0-0.1,0-0.1,0.1v0.6 c0,0.1,0.1,0.2,0.1,0.2l0.8,0.2c0.1,0,0.1,0.1,0.1,0.2v4.5c0,0.1,0.1,0.2,0.2,0.2l0.4,0.1c0.1,0,0.2,0,0.2-0.1v-4.5 c0-0.1,0.1-0.1,0.1-0.1L104.3-5.7z"></path> <path class="st4" d="M107.7-5.2v3.7c0,0.7,0,2-1.5,1.8l-2.4-0.4l-11-1.7h-0.3l-3.6-0.6l-9.6-1.5c-1.3-0.2-1.6-1.5-1.6-2.2v-7.6 c0-0.8,0.3-1.7,1.7-1.3L106-7.6C106.4-7.3,107.6-6.9,107.7-5.2z"></path> <path class="st5" d="M98.3-0.7l-1-0.2l-4.6-0.7h-0.3L89-0.7l-4.9,1.4C83.8,0.8,83,1,82.9,2.2v2.6c0,0,0,0.1,0,0.2 c0,0.5,0.1,1.2,1.1,1.1l5.4-0.8L90,5.2l0,0l6.3-1l1-0.2l0,0l0,0l0,0l5.2-0.8c0.9-0.2,1.1-1,1.1-1.5l0,0V0.1L98.3-0.7z"></path> </g> <path class="st6" d="M128.3,50.9H9.8c-1.4,0-2.6-1.2-2.6-2.6V16.7c0-1.4,1.2-2.6,2.6-2.6h118.6c1.4,0,2.6,1.2,2.6,2.6v31.6 C131,49.8,129.8,50.9,128.3,50.9z"></path> <g> <path class="st7" d="M34.9,45.2c-0.4,0-0.8-0.3-0.9-0.8l-2.3-15.6l-0.1-1.1h-0.2v16.5c0,0.5-0.4,0.9-0.9,0.9h-1.7 c-0.5,0-0.9-0.4-0.9-0.9V20.1c0-0.5,0.4-0.9,0.9-0.9h3c0.4,0,0.8,0.3,0.9,0.7l2.1,11.1c0,0,0,0,0,0.1l0.2,1.4H35l0.2-1.4 c0,0,0,0,0-0.1L37.3,20c0.1-0.4,0.5-0.7,0.9-0.7h3c0.5,0,0.9,0.4,0.9,0.9v24.2c0,0.5-0.4,0.9-0.9,0.9h-1.7c-0.5,0-0.9-0.4-0.9-0.9 V27.8h-0.2l-0.1,1.1l-2.3,15.6C35.8,44.9,35.4,45.2,34.9,45.2L34.9,45.2z"></path> <path class="st7" d="M48.4,44.2L52,20c0.1-0.4,0.4-0.8,0.9-0.8H56c0.4,0,0.8,0.3,0.9,0.8l3.7,24.2c0.1,0.5-0.3,1-0.9,1h-1.9 c-0.5,0-0.8-0.3-0.9-0.8l-0.5-3.7c-0.1-0.4-0.4-0.8-0.9-0.8h-2.1c-0.5,0-0.8,0.3-0.9,0.8L52,44.5c-0.1,0.4-0.4,0.8-0.9,0.8h-1.9 C48.7,45.2,48.3,44.8,48.4,44.2z M54.7,27.7L54.6,27h-0.2l-0.1,0.7l-1,7.2c-0.1,0.5,0.3,1,0.9,1h0.6c0.5,0,1-0.5,0.9-1L54.7,27.7z"></path> <path class="st7" d="M67.8,19.2h2c0.5,0,0.9,0.4,0.9,0.9v24.2c0,0.5-0.4,0.9-0.9,0.9h-2c-0.5,0-0.9-0.4-0.9-0.9V20.1 C66.9,19.6,67.3,19.2,67.8,19.2z"></path> <path class="st7" d="M81.9,31.7l-0.3-1.2h-0.2v13.9c0,0.5-0.4,0.9-0.9,0.9h-1.7c-0.5,0-0.9-0.4-0.9-0.9V20.1c0-0.5,0.4-0.9,0.9-0.9 h1.8c0.4,0,0.8,0.3,0.9,0.7L85,32.8l0.3,1.2h0.2V20.1c0-0.5,0.4-0.9,0.9-0.9h1.7c0.5,0,0.9,0.4,0.9,0.9v24.2c0,0.5-0.4,0.9-0.9,0.9 h-1.8c-0.4,0-0.8-0.3-0.9-0.7L81.9,31.7z"></path> <path class="st7" d="M99.8,34.3c-0.2-0.3-0.5-0.5-0.8-0.5c-0.5,0-0.7,0.5-0.7,1.3c0,0.4,0.2,0.9,0.5,1.4c0.3,0.5,0.7,1,1,1.6 c0.4,0.7,0.9,1.3,1.2,2c0.3,0.7,0.6,1.3,0.6,2c0,0.9-0.1,1.7-0.5,2.3s-1.1,1-2.1,1c-1.2,0-1.9-0.5-2.3-1.2 c-0.3-0.5-0.4-1.1-0.4-1.7c0-0.5,0.3-0.9,0.8-1l0.1,0c0.5,0,0.9,0.3,1,0.8c0,0.2,0.1,0.4,0.1,0.6c0.1,0.4,0.3,0.7,0.7,0.7 c0.6,0,0.8-0.6,0.8-1.4c0-0.4-0.2-0.9-0.5-1.4c-0.2-0.2-0.3-0.5-0.5-0.8c-0.4-0.5-0.8-1.1-1.2-1.8c-0.4-0.7-0.7-1.3-0.9-2 c-0.1-0.3-0.2-0.7-0.2-1c0-0.7,0.2-1.5,0.6-2.1c0.4-0.6,1-1,1.9-1c1.2,0,1.8,0.5,2.2,1.2c0.2,0.4,0.4,0.9,0.4,1.4 c0.1,0.5-0.3,1.1-0.8,1C100.4,35.5,100.2,35.2,99.8,34.3z"></path> <path class="st7" d="M104.2,33.3v-0.2c0-0.5,0.4-0.9,0.9-0.9h3.7c0.5,0,0.9,0.4,0.9,0.9v0.2c0,0.5-0.4,0.9-0.9,0.9l0,0 c-0.5,0-0.9,0.4-0.9,0.9v9.2c0,0.5-0.4,0.9-0.9,0.9h-0.1c-0.5,0-0.9-0.4-0.9-0.9v-9.2c0-0.5-0.4-0.9-0.9-0.9l0,0 C104.6,34.2,104.2,33.8,104.2,33.3z"></path> </g> <g> <path class="st7" d="M15.1,61.9c0-0.1,0.1-0.2,0.1-0.2c0-0.1,0.1-0.2,0.1-0.2l2-3.6c0-0.1,0.1-0.1,0.1-0.1c0,0,0.1,0,0.2,0h0.6v6 h-0.8v-4.3c0-0.1,0-0.1,0-0.2c0-0.1,0-0.1,0-0.2l-2,3.7c0,0.1-0.1,0.1-0.1,0.1c-0.1,0-0.1,0.1-0.2,0.1H15c-0.1,0-0.2-0.1-0.3-0.2 l-2.1-3.7c0,0.1,0,0.2,0,0.2c0,0.1,0,0.1,0,0.2v4.3h-0.8v-6h0.6c0.1,0,0.1,0,0.2,0c0,0,0.1,0.1,0.1,0.1l2,3.6 C14.9,61.5,15,61.7,15.1,61.9z"></path> <path class="st7" d="M25.4,63.6h-0.6c-0.1,0-0.1,0-0.2,0c0,0-0.1-0.1-0.1-0.1l-0.4-1.2h-2.2l-0.4,1.2c0,0,0,0.1-0.1,0.1 c0,0-0.1,0.1-0.2,0.1h-0.6l2-5h0.7L25.4,63.6z M22.1,61.8h1.8l-0.8-2c0-0.1-0.1-0.1-0.1-0.2c0-0.1-0.1-0.2-0.1-0.3 c0,0.1-0.1,0.2-0.1,0.3c0,0.1-0.1,0.2-0.1,0.2L22.1,61.8z"></path> <path class="st7" d="M28.1,61.6v2h-0.7v-5h1.4c0.3,0,0.6,0,0.8,0.1s0.4,0.2,0.6,0.3s0.3,0.3,0.3,0.4c0.1,0.2,0.1,0.4,0.1,0.6 c0,0.2,0,0.3-0.1,0.5c-0.1,0.2-0.1,0.3-0.2,0.4s-0.2,0.2-0.4,0.3c-0.1,0.1-0.3,0.2-0.5,0.2c0.1,0.1,0.2,0.1,0.2,0.2l1.4,1.9h-0.6 c-0.1,0-0.2-0.1-0.3-0.2l-1.2-1.7c0-0.1-0.1-0.1-0.1-0.1c0,0-0.1,0-0.2,0H28.1z M28.1,61.1h0.7c0.2,0,0.4,0,0.5-0.1 c0.1,0,0.3-0.1,0.4-0.2c0.1-0.1,0.2-0.2,0.2-0.3c0-0.1,0.1-0.2,0.1-0.4c0-0.3-0.1-0.5-0.3-0.7c-0.2-0.1-0.5-0.2-0.9-0.2h-0.7V61.1z "></path> <path class="st7" d="M33.9,60.8h0.2c0.1,0,0.2,0,0.2,0c0.1,0,0.1-0.1,0.1-0.1l1.6-1.8c0-0.1,0.1-0.1,0.2-0.1c0.1,0,0.1,0,0.2,0H37 l-1.9,2.1C35.1,60.9,35,61,34.9,61c0.1,0,0.2,0.1,0.3,0.3l1.9,2.3h-0.6c-0.1,0-0.2,0-0.2,0s-0.1-0.1-0.1-0.1l-1.7-1.9 c0-0.1-0.1-0.1-0.2-0.1c-0.1,0-0.1,0-0.2,0h-0.3v2.3h-0.7v-5h0.7V60.8z"></path> <path class="st7" d="M42.2,58.7v0.6h-2.4v1.6h1.9v0.6h-1.9V63h2.4l0,0.6h-3.1v-5H42.2z"></path> <path class="st7" d="M47.9,58.7v0.6h-1.6v4.4h-0.7v-4.4H44v-0.6H47.9z"></path> <path class="st7" d="M50.8,61.8v1.8H50v-5h1.5c0.3,0,0.6,0,0.8,0.1c0.2,0.1,0.4,0.2,0.6,0.3c0.2,0.1,0.3,0.3,0.3,0.5 c0.1,0.2,0.1,0.4,0.1,0.6s0,0.4-0.1,0.6c-0.1,0.2-0.2,0.4-0.4,0.5c-0.2,0.1-0.4,0.2-0.6,0.3c-0.2,0.1-0.5,0.1-0.8,0.1H50.8z M50.8,61.2h0.8c0.2,0,0.4,0,0.5-0.1c0.1,0,0.3-0.1,0.4-0.2c0.1-0.1,0.2-0.2,0.2-0.3c0-0.1,0.1-0.3,0.1-0.4c0-0.2,0-0.3-0.1-0.4 s-0.1-0.2-0.2-0.3c-0.1-0.1-0.2-0.2-0.4-0.2s-0.3-0.1-0.5-0.1h-0.8V61.2z"></path> <path class="st7" d="M56.3,63h2.1v0.6h-2.8v-5h0.7V63z"></path> <path class="st7" d="M64.7,63.6h-0.6c-0.1,0-0.1,0-0.2,0s-0.1-0.1-0.1-0.1l-0.4-1.2h-2.2l-0.4,1.2c0,0,0,0.1-0.1,0.1 c0,0-0.1,0.1-0.2,0.1H60l2-5h0.7L64.7,63.6z M61.4,61.8h1.8l-0.8-2c0-0.1-0.1-0.1-0.1-0.2c0-0.1-0.1-0.2-0.1-0.3 c0,0.1-0.1,0.2-0.1,0.3s-0.1,0.2-0.1,0.2L61.4,61.8z"></path> <path class="st7" d="M70,62.6c0,0,0.1,0,0.1,0l0.3,0.3c-0.2,0.2-0.5,0.4-0.7,0.6c-0.3,0.1-0.6,0.2-1,0.2c-0.4,0-0.7-0.1-1-0.2 c-0.3-0.1-0.5-0.3-0.7-0.5c-0.2-0.2-0.4-0.5-0.5-0.8c-0.1-0.3-0.2-0.7-0.2-1c0-0.4,0.1-0.7,0.2-1c0.1-0.3,0.3-0.6,0.5-0.8 c0.2-0.2,0.5-0.4,0.8-0.5c0.3-0.1,0.6-0.2,1-0.2c0.4,0,0.7,0.1,0.9,0.2s0.5,0.3,0.7,0.5l-0.2,0.3c0,0,0,0-0.1,0.1c0,0-0.1,0-0.1,0 c0,0-0.1,0-0.2-0.1c-0.1,0-0.1-0.1-0.2-0.1c-0.1-0.1-0.2-0.1-0.4-0.1c-0.1,0-0.3-0.1-0.5-0.1c-0.2,0-0.5,0-0.7,0.1 s-0.4,0.2-0.5,0.4c-0.1,0.2-0.3,0.4-0.3,0.6S67,60.8,67,61.1c0,0.3,0,0.6,0.1,0.8c0.1,0.2,0.2,0.4,0.4,0.6c0.2,0.2,0.3,0.3,0.5,0.4 c0.2,0.1,0.4,0.1,0.7,0.1c0.1,0,0.3,0,0.4,0c0.1,0,0.2,0,0.3-0.1s0.2-0.1,0.3-0.1c0.1-0.1,0.2-0.1,0.3-0.2 C69.9,62.6,69.9,62.6,70,62.6C70,62.6,70,62.6,70,62.6z"></path> <path class="st7" d="M75.6,58.7v0.6h-2.4v1.6h1.9v0.6h-1.9V63h2.4l0,0.6h-3.1v-5H75.6z"></path> <path class="st7" d="M84.4,60.6c0,0.4-0.1,0.9-0.2,1.2s-0.3,0.7-0.6,1s-0.6,0.5-0.9,0.6c-0.4,0.2-0.8,0.2-1.2,0.2 c-0.4,0-0.8-0.1-1.2-0.2c-0.4-0.2-0.7-0.4-0.9-0.6c-0.3-0.3-0.5-0.6-0.6-1c-0.1-0.4-0.2-0.8-0.2-1.2c0-0.4,0.1-0.9,0.2-1.2 c0.1-0.4,0.3-0.7,0.6-1c0.3-0.3,0.6-0.5,0.9-0.6c0.4-0.2,0.8-0.2,1.2-0.2c0.4,0,0.8,0.1,1.2,0.2c0.4,0.2,0.7,0.4,0.9,0.6 c0.3,0.3,0.5,0.6,0.6,1C84.3,59.8,84.4,60.2,84.4,60.6z M83.5,60.6c0-0.4,0-0.7-0.1-1c-0.1-0.3-0.2-0.5-0.4-0.7 c-0.2-0.2-0.4-0.4-0.7-0.5c-0.3-0.1-0.5-0.2-0.9-0.2s-0.6,0.1-0.9,0.2c-0.3,0.1-0.5,0.3-0.7,0.5c-0.2,0.2-0.3,0.4-0.4,0.7 c-0.1,0.3-0.1,0.6-0.1,1c0,0.4,0,0.7,0.1,1c0.1,0.3,0.2,0.5,0.4,0.7c0.2,0.2,0.4,0.4,0.7,0.5c0.3,0.1,0.5,0.2,0.9,0.2 s0.6-0.1,0.9-0.2c0.3-0.1,0.5-0.3,0.7-0.5c0.2-0.2,0.3-0.4,0.4-0.7C83.5,61.3,83.5,61,83.5,60.6z"></path> <path class="st7" d="M90.2,58.7v0.6h-2.4v1.7h2v0.6h-2v2.1h-0.7v-5H90.2z"></path> <path class="st7" d="M97.1,57.6v0.7h-1.9v5.3h-0.9v-5.3h-1.9v-0.7H97.1z"></path> <path class="st7" d="M103.6,63.6h-0.7v-2.2h-2.6v2.2h-0.7v-5h0.7v2.2h2.6v-2.2h0.7V63.6z"></path> <path class="st7" d="M107,63.6h-0.7v-5h0.7V63.6z"></path> <path class="st7" d="M110.1,58.7c0,0,0.1,0,0.1,0.1l2.8,3.7c0-0.1,0-0.1,0-0.2c0-0.1,0-0.1,0-0.2v-3.4h0.6v5h-0.4 c-0.1,0-0.1,0-0.1,0s-0.1-0.1-0.1-0.1l-2.8-3.7c0,0.1,0,0.1,0,0.2c0,0.1,0,0.1,0,0.2v3.4h-0.6v-5h0.4 C110,58.7,110.1,58.7,110.1,58.7z"></path> <path class="st7" d="M119.5,63.6c-0.3,0.1-0.6,0.1-0.9,0.1c-0.4,0-0.8-0.1-1.1-0.2c-0.3-0.1-0.6-0.3-0.8-0.5s-0.4-0.5-0.5-0.8 c-0.1-0.3-0.2-0.7-0.2-1c0-0.4,0.1-0.7,0.2-1c0.1-0.3,0.3-0.6,0.5-0.8s0.5-0.4,0.8-0.5s0.7-0.2,1.1-0.2c0.2,0,0.4,0,0.6,0 c0.2,0,0.3,0.1,0.5,0.1c0.1,0.1,0.3,0.1,0.4,0.2c0.1,0.1,0.2,0.2,0.3,0.3l-0.2,0.3c0,0.1-0.1,0.1-0.1,0.1s-0.1,0-0.2,0 c-0.1,0-0.1-0.1-0.2-0.1s-0.2-0.1-0.3-0.1c-0.1,0-0.2-0.1-0.4-0.1c-0.1,0-0.3,0-0.5,0c-0.3,0-0.5,0-0.7,0.1 c-0.2,0.1-0.4,0.2-0.6,0.4c-0.2,0.2-0.3,0.4-0.4,0.6s-0.1,0.5-0.1,0.8c0,0.3,0,0.6,0.1,0.8c0.1,0.2,0.2,0.4,0.4,0.6 c0.2,0.2,0.4,0.3,0.6,0.4c0.2,0.1,0.5,0.1,0.8,0.1c0.1,0,0.2,0,0.3,0s0.2,0,0.3-0.1s0.2-0.1,0.3-0.1c0.1,0,0.2-0.1,0.2-0.1v-1.1 H119c0,0-0.1,0-0.1,0c0,0,0-0.1,0-0.1v-0.4h1.5v1.9C120.1,63.3,119.8,63.5,119.5,63.6z"></path> <path class="st7" d="M125.3,59.5C125.3,59.5,125.3,59.5,125.3,59.5c-0.1,0.1-0.1,0.1-0.2,0.1c0,0-0.1,0-0.1-0.1 c-0.1,0-0.1-0.1-0.2-0.1c-0.1,0-0.2-0.1-0.3-0.1c-0.1,0-0.2-0.1-0.4-0.1c-0.1,0-0.3,0-0.4,0.1c-0.1,0-0.2,0.1-0.3,0.2 c-0.1,0.1-0.1,0.1-0.2,0.2s-0.1,0.2-0.1,0.3c0,0.1,0,0.2,0.1,0.3c0.1,0.1,0.2,0.2,0.3,0.2s0.2,0.1,0.4,0.2c0.1,0,0.3,0.1,0.4,0.1 s0.3,0.1,0.4,0.2s0.3,0.1,0.4,0.2c0.1,0.1,0.2,0.2,0.3,0.4s0.1,0.3,0.1,0.5c0,0.2,0,0.4-0.1,0.6c-0.1,0.2-0.2,0.4-0.3,0.5 c-0.1,0.1-0.3,0.3-0.5,0.3c-0.2,0.1-0.4,0.1-0.7,0.1c-0.2,0-0.3,0-0.5,0c-0.1,0-0.3-0.1-0.4-0.1c-0.1-0.1-0.3-0.1-0.4-0.2 c-0.1-0.1-0.2-0.2-0.3-0.3l0.2-0.3c0,0,0-0.1,0.1-0.1c0,0,0.1,0,0.1,0c0,0,0.1,0,0.2,0.1s0.1,0.1,0.2,0.2c0.1,0.1,0.2,0.1,0.3,0.2 s0.3,0.1,0.5,0.1c0.2,0,0.3,0,0.4-0.1c0.1,0,0.2-0.1,0.3-0.2c0.1-0.1,0.1-0.2,0.2-0.3s0.1-0.2,0.1-0.4c0-0.1,0-0.3-0.1-0.4 c-0.1-0.1-0.2-0.2-0.3-0.2c-0.1-0.1-0.2-0.1-0.4-0.2c-0.1,0-0.3-0.1-0.4-0.1c-0.1,0-0.3-0.1-0.4-0.2c-0.1-0.1-0.3-0.1-0.4-0.2 c-0.1-0.1-0.2-0.2-0.3-0.4c-0.1-0.1-0.1-0.3-0.1-0.6c0-0.2,0-0.3,0.1-0.5s0.2-0.3,0.3-0.4c0.1-0.1,0.3-0.2,0.5-0.3 c0.2-0.1,0.4-0.1,0.7-0.1c0.3,0,0.5,0,0.8,0.1s0.4,0.2,0.6,0.4L125.3,59.5z"></path> </g> </svg> 