<?xml version="1.0" encoding="UTF-8"?> <!-- Generator: Adobe Illustrator 21.1.0, SVG Export Plug-In . SVG Version: 6.00 Build 0) --> <svg xmlns="http://www.w3.org/2000/svg" xmlns:xlink="http://www.w3.org/1999/xlink" id="Layer_1" x="0px" y="0px" viewBox="0 0 103.5 76.6" style="enable-background:new 0 0 103.5 76.6;" xml:space="preserve"> <style type="text/css"> .st0{display:none;} .st1{display:inline;opacity:0.6;} .st2{fill:#FFFFFF;} .st3{display:inline;opacity:0.8;fill:#FFFFFF;enable-background:new ;} .st4{fill:none;stroke:#444444;stroke-width:4;stroke-miterlimit:10;} .st5{fill:none;stroke:#111111;stroke-width:4;stroke-miterlimit:10;} .st6{opacity:0.6;fill:#FFFFFF;stroke:#333333;stroke-miterlimit:10;} .st7{opacity:0.6;} .st8{fill:#333333;} .st9{opacity:0.6;fill:none;stroke:#333333;stroke-miterlimit:10;} </style> <g class="st0"> <g class="st1"> <path class="st2" d="M90.7,0.4c-0.2,0.1-0.4,0.2-0.6,0.5c-0.1,0.3-0.2,0.6-0.2,1s0.1,0.7,0.2,0.9C90.2,3,90.4,3.1,90.6,3 c0.2,0,0.4-0.2,0.6-0.4c0.1-0.3,0.2-0.6,0.2-1s0-0.7-0.2-0.9C91.1,0.4,90.9,0.4,90.7,0.4z"></path> <path class="st2" d="M91.3-1.8L83,0.5c-0.3,0.1-1.1,0.3-1.2,1.5v2.6c0,0,0,0.1,0,0.2c0,0.5,0.1,1.2,1.1,1L88.3,5l0.6-0.1l0,0V5 l0,0l0,0l0,0c0.4,0.2,0.7,0.3,1.2,0.5v5.4h4.3v-5c0-1,0-1,1-1.2c0.2,0,0.5-0.2,0.5-0.4c0-0.4,0.1-0.6,0.3-0.7l0,0l5.2-0.8 c0.9-0.2,1.1-1,1.1-1.4c0,0,0,0,0-0.1v-1.5L91.3-1.8z M84.9,4.6h-0.2c-0.1,0-0.1-0.1-0.1-0.1V4.1c0-0.1,0-0.1,0.1-0.1h0.2 C85,4,85,4,85,4.1v0.4C85,4.6,84.9,4.6,84.9,4.6z M86.9,4c-0.2,0.2-0.4,0.3-0.7,0.4c-0.3,0.1-0.5,0-0.6-0.1 c-0.1-0.1-0.2-0.3-0.3-0.5c0-0.1,0-0.2,0.1-0.2l0.2-0.1c0.1,0,0.1,0,0.2,0.1c0,0.1,0.1,0.2,0.1,0.2c0.1,0.1,0.2,0.1,0.4,0 c0.3-0.1,0.5-0.2,0.5-0.5c0-0.1,0-0.2-0.1-0.2c0,0-0.1-0.1-0.2-0.1s-0.2,0-0.4-0.1c-0.2,0-0.3,0-0.3-0.1c-0.1,0-0.1-0.1-0.2-0.1 s-0.1-0.1-0.1-0.1c0-0.1-0.1-0.1-0.1-0.2s0-0.2,0-0.3c0-0.3,0.1-0.6,0.2-0.8C85.7,1.1,86,1,86.2,0.9c0.3-0.1,0.5,0,0.6,0.1 c0.1,0.1,0.2,0.2,0.3,0.5c0,0.1,0,0.2-0.1,0.2l-0.2,0.1c-0.1,0-0.1,0-0.2-0.1c0-0.1-0.1-0.1-0.1-0.2c-0.1-0.1-0.2-0.1-0.3,0 c-0.3,0.1-0.4,0.2-0.4,0.5c0,0.1,0,0.2,0,0.2l0.1,0.1c0.1,0,0.2,0,0.4,0.1c0.2,0,0.4,0,0.5,0.1c0.1,0,0.2,0.1,0.2,0.2 c0.1,0.1,0.1,0.2,0.1,0.3c0,0.1,0,0.2,0,0.4C87.1,3.6,87.1,3.8,86.9,4z M89.3,0.7c0,0.1,0,0.1-0.1,0.1l-0.5,0.1L88.6,1v2.9 c0,0.1,0,0.1-0.1,0.1l-0.4,0.1c0,0-0.1,0-0.1-0.1V1.2c0,0,0-0.1-0.1-0.1l-0.6,0.1c0,0-0.1,0-0.1-0.1V0.7c0,0,0-0.1,0.1-0.1 l1.8-0.5c0,0,0.1,0,0.1,0.1L89.3,0.7L89.3,0.7z M92,1.4c0,0.4-0.1,0.8-0.2,1.1c-0.1,0.3-0.3,0.6-0.5,0.8c-0.2,0.2-0.4,0.3-0.7,0.4 c-0.4,0.1-0.7,0-0.9-0.3c-0.2-0.3-0.3-0.7-0.3-1.3c0-0.6,0.1-1.1,0.3-1.5c0.2-0.4,0.5-0.6,1-0.7c0.4-0.1,0.7,0,1,0.3 C91.9,0.4,92,0.8,92,1.4z M94.2,1.4l0.5,1.1c0,0.1,0,0.2-0.1,0.2l-0.4,0.2c-0.1,0-0.1,0-0.1-0.1l-0.5-1.1c0-0.1-0.1-0.1-0.1-0.1 L93,1.7c-0.1,0-0.1,0.1-0.1,0.2v1.2c0,0.1,0,0.1-0.1,0.2l-0.3,0.1c-0.1,0-0.2-0.1-0.2-0.2l0.1-3.5c0-0.1,0-0.1,0.1-0.2l1.3-0.3 c0.3-0.1,0.6,0,0.8,0.1c0.2,0.2,0.2,0.4,0.2,0.8c0,0.3-0.1,0.6-0.2,0.8C94.5,1.1,94.4,1.3,94.2,1.4C94.2,1.3,94.2,1.4,94.2,1.4z M97.6,1.7v0.5c0,0.1,0,0.1-0.1,0.1l-2.2,0.4c0,0-0.1,0-0.1-0.1l0.2-3.5c0,0,0-0.1,0.1-0.1l0.6,0.1l0,0l0,0L96-0.8l-0.1,0.9 c0,0.1,0,0.1,0.1,0.1l1.5-0.3c0,0,0.1,0,0.1,0.1v0.5c0,0,0,0.1-0.1,0.1L96,0.9L95.9,1l-0.1,0.9c0,0,0,0.1,0.1,0.1L97.6,1.7 C97.6,1.6,97.6,1.6,97.6,1.7z"></path> <path class="st2" d="M93.7-0.3l-0.6,0.2C93-0.1,93,0,93,0.1v0.8c0,0.1,0.1,0.2,0.2,0.2L93.8,1c0.2,0,0.3-0.1,0.4-0.2 c0.1-0.1,0.1-0.3,0.2-0.5C94.3-0.2,94.1-0.3,93.7-0.3z"></path> </g> <path class="st3" d="M106.7-5.1v3.7c0,0.7,0,2-1.6,1.8L102.7,0l-5.3-0.8l-1-0.2l-4.6-0.7h-0.3h-0.2l-2.9,0.8 c0.1-0.1,0.2-0.2,0.3-0.2c0.2-0.1,0.4-0.1,0.6-0.2v-0.1c-0.1,0-0.3,0-0.4,0c-0.4,0-0.6-0.1-0.6-0.6c0,0,0,0,0-0.1v-0.1l-0.4-0.1 l-9.6-1.6c-1.3-0.2-1.6-1.5-1.6-2.2l0.1-7.6c0-0.8,0.3-1.7,1.7-1.3l26.6,7.6C105.4-7.2,106.7-6.8,106.7-5.1z M84-4.8 c0.1,0,0.2-0.1,0.2-0.2l0.3-6.4c0-0.1-0.1-0.3-0.2-0.3L83.4-12c-0.1,0-0.2,0-0.3,0.2l-1,3.4C82.1-8.3,82-8.1,82-8l-0.2,0.6 c0,0.1-0.1,0.1-0.1,0l-0.1-0.5c0-0.1,0-0.3-0.1-0.4c0-0.1,0-0.3-0.1-0.4l-0.6-3.7c0-0.1-0.1-0.2-0.3-0.3l-1-0.3 c-0.1,0-0.2,0-0.2,0.2L79-6.1c0,0.1,0.1,0.2,0.2,0.3l0.6,0.1c0.1,0,0.2-0.1,0.2-0.2l0.3-3.9c0-0.1,0-0.3,0-0.5v-1.1 c0-0.1,0-0.1,0,0l0.2,1.5c0,0.1,0,0.3,0.1,0.4l0.6,3.8c0,0.1,0.1,0.2,0.3,0.3l0.3,0.1c0.1,0,0.2,0,0.3-0.2l1-3.3 c0-0.1,0.1-0.3,0.1-0.4l0.4-1.3c0-0.1,0-0.1,0,0l-0.1,0.8c0,0.1,0,0.4,0,0.4s0,0.2,0,0.3l-0.2,3.8c0,0.1,0.1,0.2,0.2,0.3L84-4.8z M89.1-3.8c0.1,0,0.2-0.1,0.2-0.2l-1.2-6.5c0-0.1-0.1-0.2-0.3-0.3L87.1-11c-0.1,0-0.2,0-0.3,0.2l-1.9,6c0,0.1,0,0.2,0.2,0.3 l0.6,0.1c0.1,0,0.2,0,0.3-0.2l0.4-1.2c0-0.1,0.2-0.2,0.3-0.2L88-5.7c0.1,0,0.2,0.2,0.3,0.3L88.5-4c0,0.1,0.1,0.2,0.3,0.3L89.1-3.8z M87.5-9.3v0.2c0,0.1,0,0.3,0.1,0.4l0.3,1.6c0,0.1-0.1,0.2-0.2,0.2l-0.9-0.2c-0.1,0-0.2-0.1-0.2-0.3l0.5-1.8c0-0.1,0.1-0.4,0.1-0.5 s0-0.1,0-0.2s0,0,0,0.1C87.4-9.6,87.5-9.4,87.5-9.3z M90.6-3.5c0.1,0,0.2-0.1,0.2-0.2l0.2-6c0-0.1-0.1-0.3-0.2-0.3l-0.4-0.1 c-0.1,0-0.2,0-0.2,0.2L90-3.8c0,0.1,0.1,0.2,0.2,0.3L90.6-3.5z M95-2.6c0.1,0,0.2-0.1,0.2-0.2l0.1-5.8c0-0.1-0.1-0.3-0.2-0.3 L94.8-9c-0.1,0-0.2,0-0.2,0.2l-0.1,3.2c0,0.1,0,0.3,0,0.5v0.8c0,0.1,0,0.1-0.1,0l-1.5-4.9c0-0.1-0.2-0.2-0.3-0.3l-0.5-0.2 c-0.1,0-0.2,0-0.2,0.2l-0.2,6c0,0.1,0.1,0.3,0.2,0.3l0.3,0.1c0.1,0,0.2-0.1,0.2-0.2l0.1-3.4c0-0.1,0-0.3,0-0.5v-0.7 c0-0.1,0-0.1,0.1,0L94.1-3c0,0.1,0.2,0.2,0.3,0.3L95-2.6z M100.3-4c0-0.2-0.1-0.4-0.2-0.5c-0.1-0.2-0.2-0.3-0.3-0.4 c-0.1-0.1-0.4-0.3-0.7-0.5c-0.3-0.2-0.5-0.3-0.6-0.4S98.3-6,98.3-6.1c0-0.1-0.1-0.2-0.1-0.4c0-0.5,0.2-0.6,0.7-0.5 c0.2,0.1,0.4,0.2,0.5,0.3c0.1,0.1,0.2,0.3,0.2,0.5c0,0.1,0.1,0.1,0.1,0.1h0.4c0.1,0,0.2-0.1,0.1-0.2c-0.1-0.4-0.2-0.8-0.4-1 c-0.2-0.3-0.5-0.5-1-0.6S98-8,97.7-7.8c-0.2,0.2-0.4,0.6-0.4,1.1c0,0.2,0,0.4,0,0.6s0.1,0.3,0.1,0.5s0.1,0.3,0.2,0.4 c0.1,0.1,0.2,0.2,0.3,0.3c0.1,0.1,0.3,0.2,0.6,0.4c0.3,0.2,0.5,0.3,0.6,0.4c0.1,0.1,0.2,0.2,0.2,0.3c0.1,0.1,0.1,0.3,0.1,0.4 c0,0.5-0.3,0.7-0.8,0.6C98.3-2.9,98.2-3,98-3.1c-0.1-0.2-0.2-0.4-0.3-0.6c0-0.1-0.1-0.1-0.2-0.1c-0.1,0-0.3,0-0.5,0 c-0.1,0-0.2,0.1-0.1,0.2c0.1,0.5,0.2,0.9,0.5,1.2c0.3,0.3,0.6,0.5,1.1,0.6s0.9,0,1.1-0.2c0.2-0.2,0.4-0.7,0.4-1.2 C100.3-3.5,100.3-3.7,100.3-4z M103.3-5.7c0.1,0,0.2,0,0.2-0.1v-0.6c0-0.1-0.1-0.2-0.1-0.2l-2.5-0.7c-0.1,0-0.1,0-0.1,0.1v0.6 c0,0.1,0.1,0.2,0.1,0.2l0.8,0.2c0.1,0,0.1,0.1,0.1,0.2v4.5c0,0.1,0.1,0.2,0.2,0.2l0.4,0.1c0.1,0,0.2,0,0.2-0.1v-4.5 c0-0.1,0.1-0.1,0.1-0.1L103.3-5.7z"></path> <path class="st4" d="M106.7-5.2v3.7c0,0.7,0,2-1.5,1.8l-2.4-0.4l-11-1.7h-0.3l-3.6-0.6l-9.6-1.5c-1.3-0.2-1.6-1.5-1.6-2.2v-7.6 c0-0.8,0.3-1.7,1.7-1.3L105-7.6C105.4-7.3,106.6-6.9,106.7-5.2z"></path> <path class="st5" d="M97.3-0.7l-1-0.2l-4.6-0.7h-0.3L88-0.7l-4.9,1.4C82.8,0.8,82,1,81.9,2.2v2.6c0,0,0,0.1,0,0.2 c0,0.5,0.1,1.2,1.1,1.1l5.4-0.8L89,5.2l0,0l6.3-1l1-0.2l0,0l0,0l0,0l5.2-0.8c0.9-0.2,1.1-1,1.1-1.5l0,0V0.1L97.3-0.7z"></path> </g> <path class="st6" d="M97.3,57.9H5.8c-1.4,0-2.6-1.2-2.6-2.6V23.7c0-1.4,1.2-2.6,2.6-2.6h91.6c1.4,0,2.6,1.2,2.6,2.6v31.6 C100,56.8,98.8,57.9,97.3,57.9z"></path> <g class="st7"> <path class="st8" d="M18.9,52.2c-0.4,0-0.8-0.3-0.9-0.8l-2.3-15.6l-0.1-1.1h-0.2v16.5c0,0.5-0.4,0.9-0.9,0.9h-1.7 c-0.5,0-0.9-0.4-0.9-0.9V27.1c0-0.5,0.4-0.9,0.9-0.9h3c0.4,0,0.8,0.3,0.9,0.7l2.1,11.1c0,0,0,0,0,0.1l0.2,1.4H19l0.2-1.4 c0,0,0,0,0-0.1L21.3,27c0.1-0.4,0.5-0.7,0.9-0.7h3c0.5,0,0.9,0.4,0.9,0.9v24.2c0,0.5-0.4,0.9-0.9,0.9h-1.7c-0.5,0-0.9-0.4-0.9-0.9 V34.8h-0.2l-0.1,1.1l-2.3,15.6C19.8,51.9,19.4,52.2,18.9,52.2L18.9,52.2z"></path> <path class="st8" d="M32.4,51.2L36,27c0.1-0.4,0.4-0.8,0.9-0.8H40c0.4,0,0.8,0.3,0.9,0.8l3.7,24.2c0.1,0.5-0.3,1-0.9,1h-1.9 c-0.5,0-0.8-0.3-0.9-0.8l-0.5-3.7c-0.1-0.4-0.4-0.8-0.9-0.8h-2.1c-0.5,0-0.8,0.3-0.9,0.8L36,51.5c-0.1,0.4-0.4,0.8-0.9,0.8h-1.9 C32.7,52.2,32.3,51.8,32.4,51.2z M38.7,34.7L38.6,34h-0.2l-0.1,0.7l-1,7.2c-0.1,0.5,0.3,1,0.9,1h0.6c0.5,0,1-0.5,0.9-1L38.7,34.7z"></path> <path class="st8" d="M51.8,26.2h2c0.5,0,0.9,0.4,0.9,0.9v24.2c0,0.5-0.4,0.9-0.9,0.9h-2c-0.5,0-0.9-0.4-0.9-0.9V27.1 C50.9,26.6,51.3,26.2,51.8,26.2z"></path> <path class="st8" d="M65.9,38.7l-0.3-1.2h-0.2v13.9c0,0.5-0.4,0.9-0.9,0.9h-1.7c-0.5,0-0.9-0.4-0.9-0.9V27.1c0-0.5,0.4-0.9,0.9-0.9 h1.8c0.4,0,0.8,0.3,0.9,0.7L69,39.8l0.3,1.2h0.2V27.1c0-0.5,0.4-0.9,0.9-0.9h1.7c0.5,0,0.9,0.4,0.9,0.9v24.2c0,0.5-0.4,0.9-0.9,0.9 h-1.8c-0.4,0-0.8-0.3-0.9-0.7L65.9,38.7z"></path> <path class="st8" d="M83.8,41.3c-0.2-0.3-0.5-0.5-0.8-0.5c-0.5,0-0.7,0.5-0.7,1.3c0,0.4,0.2,0.9,0.5,1.4c0.3,0.5,0.7,1,1,1.6 c0.4,0.7,0.9,1.3,1.2,2c0.3,0.7,0.6,1.3,0.6,2c0,0.9-0.1,1.7-0.5,2.3s-1.1,1-2.1,1c-1.2,0-1.9-0.5-2.3-1.2 c-0.3-0.5-0.4-1.1-0.4-1.7c0-0.5,0.3-0.9,0.8-1l0.1,0c0.5,0,0.9,0.3,1,0.8c0,0.2,0.1,0.4,0.1,0.6c0.1,0.4,0.3,0.7,0.7,0.7 c0.6,0,0.8-0.6,0.8-1.4c0-0.4-0.2-0.9-0.5-1.4c-0.2-0.2-0.3-0.5-0.5-0.8c-0.4-0.5-0.8-1.1-1.2-1.8c-0.4-0.7-0.7-1.3-0.9-2 c-0.1-0.3-0.2-0.7-0.2-1c0-0.7,0.2-1.5,0.6-2.1c0.4-0.6,1-1,1.9-1c1.2,0,1.8,0.5,2.2,1.2c0.2,0.4,0.4,0.9,0.4,1.4 c0.1,0.5-0.3,1.1-0.8,1C84.4,42.5,84.2,42.2,83.8,41.3z"></path> <path class="st8" d="M88.2,40.3v-0.2c0-0.5,0.4-0.9,0.9-0.9h3.7c0.5,0,0.9,0.4,0.9,0.9v0.2c0,0.5-0.4,0.9-0.9,0.9l0,0 c-0.5,0-0.9,0.4-0.9,0.9v9.2c0,0.5-0.4,0.9-0.9,0.9h-0.1c-0.5,0-0.9-0.4-0.9-0.9v-9.2c0-0.5-0.4-0.9-0.9-0.9l0,0 C88.6,41.2,88.2,40.8,88.2,40.3z"></path> </g> <path class="st9" d="M97.4,57.9H5.8c-1.4,0-2.6-1.2-2.6-2.6V23.7c0-1.4,1.2-2.6,2.6-2.6h91.6c1.4,0,2.6,1.2,2.6,2.6v31.6 C100,56.8,98.8,57.9,97.4,57.9z"></path> </svg> 