<?xml version="1.0" encoding="UTF-8"?> <!-- Generator: Adobe Illustrator 21.1.0, SVG Export Plug-In . SVG Version: 6.00 Build 0) --> <svg xmlns="http://www.w3.org/2000/svg" xmlns:xlink="http://www.w3.org/1999/xlink" id="Layer_1" x="0px" y="0px" viewBox="0 0 58.4 53.1" style="enable-background:new 0 0 58.4 53.1;" xml:space="preserve"> <style type="text/css"> .st0{opacity:0.6;} .st1{fill:#FFFFFF;} .st2{opacity:0.8;fill:#FFFFFF;enable-background:new ;} .st3{display:none;fill:none;stroke:#444444;stroke-width:4;stroke-miterlimit:10;} .st4{display:none;fill:none;stroke:#111111;stroke-width:4;stroke-miterlimit:10;} </style> <g> <g class="st0"> <path class="st1" d="M27.5,34.2c-0.4,0.1-0.7,0.4-1,0.8c-0.2,0.5-0.3,1.1-0.4,1.8c0,0.7,0.1,1.3,0.3,1.6c0.2,0.4,0.5,0.5,0.9,0.4 c0.4-0.1,0.7-0.3,1-0.8c0.2-0.5,0.4-1.1,0.4-1.8c0-0.7-0.1-1.3-0.3-1.6C28.3,34.2,27.9,34.1,27.5,34.2z"></path> <path class="st1" d="M28.7,30.3l-14.7,4.1c-0.5,0.1-2,0.6-2.1,2.7v4.6c0,0.1,0,0.2,0,0.3c0,0.9,0.2,2.1,1.9,1.9l9.7-1.5l1-0.2h0 c0,0.1,0,0.1-0.1,0.2l0,0.1h0l0,0.1c0.6,0.3,1.3,0.6,2.1,0.9l0,9.6h7.7l0-9c0-1.8,0-1.8,1.7-2.1c0.4-0.1,0.9-0.4,0.9-0.6 c0-0.7,0.2-1,0.6-1.2l0,0l9.2-1.4c1.5-0.3,1.9-1.7,1.9-2.6c0,0,0-0.1,0-0.1v-2.7L28.7,30.3z M17.2,41.7l-0.4,0.1 c-0.1,0-0.2-0.1-0.2-0.2l0-0.8c0-0.1,0.1-0.2,0.2-0.2l0.4-0.1c0.1,0,0.2,0.1,0.2,0.2l0,0.8C17.4,41.6,17.3,41.7,17.2,41.7z M20.8,40.7c-0.3,0.4-0.7,0.6-1.2,0.7c-0.5,0.1-0.9,0-1.2-0.2c-0.2-0.2-0.4-0.5-0.5-0.9c0-0.1,0-0.3,0.1-0.3l0.4-0.2 c0.1,0,0.2,0,0.3,0.2c0.1,0.2,0.1,0.3,0.2,0.4c0.2,0.1,0.4,0.1,0.6,0.1c0.6-0.1,0.8-0.4,0.8-1c0-0.2,0-0.3-0.1-0.4 c-0.1-0.1-0.2-0.2-0.3-0.2c-0.1,0-0.3-0.1-0.7-0.1c-0.3,0-0.5-0.1-0.6-0.1c-0.1,0-0.2-0.1-0.3-0.2c-0.1-0.1-0.2-0.1-0.2-0.3 c-0.1-0.1-0.1-0.2-0.2-0.4c0-0.2-0.1-0.3-0.1-0.6c0-0.5,0.1-1,0.3-1.4c0.2-0.4,0.6-0.6,1.1-0.7c0.5-0.1,0.9-0.1,1.1,0.1 c0.2,0.1,0.4,0.4,0.5,0.8c0,0.1,0,0.3-0.1,0.3l-0.4,0.2c-0.1,0-0.2,0-0.3-0.2c-0.1-0.1-0.1-0.2-0.2-0.3C19.9,36,19.7,36,19.4,36 c-0.5,0.1-0.7,0.4-0.7,0.9c0,0.2,0,0.3,0.1,0.4c0.1,0.1,0.1,0.2,0.2,0.2c0.1,0,0.3,0.1,0.6,0.1c0.4,0,0.7,0.1,0.8,0.2 c0.2,0.1,0.3,0.2,0.4,0.3c0.1,0.1,0.2,0.3,0.2,0.5c0,0.2,0.1,0.4,0.1,0.7C21.2,39.8,21.1,40.3,20.8,40.7z M25,34.7 c0,0.1-0.1,0.2-0.1,0.2l-0.9,0.2c-0.1,0-0.1,0.1-0.1,0.2v4.9c0,0.1-0.1,0.2-0.1,0.2l-0.7,0.1c-0.1,0-0.1-0.1-0.1-0.2l0-4.9 c0-0.1-0.1-0.2-0.1-0.1l-1,0.2c-0.1,0-0.1,0-0.1-0.1l0-0.7c0-0.1,0.1-0.2,0.1-0.2l3.3-0.8c0.1,0,0.1,0,0.1,0.1L25,34.7L25,34.7z M29.8,36c0,0.7-0.1,1.3-0.3,1.9c-0.2,0.6-0.5,1-0.8,1.3c-0.3,0.3-0.7,0.6-1.2,0.6c-0.7,0.1-1.2-0.1-1.6-0.6 c-0.4-0.5-0.6-1.3-0.6-2.3c0-1.1,0.2-1.9,0.6-2.6c0.4-0.7,1-1.1,1.7-1.3c0.7-0.2,1.3,0,1.7,0.5C29.6,34.1,29.8,34.9,29.8,36z M33.8,36l0.9,2c0.1,0.2,0,0.4-0.2,0.4l-0.7,0.1c-0.1,0-0.2-0.1-0.2-0.2l-0.8-2c-0.1-0.1-0.2-0.2-0.2-0.2l-0.8,0.2 c-0.1,0-0.2,0.1-0.2,0.3l-0.1,2.1c0,0.1-0.1,0.3-0.2,0.3l-0.5,0.1c-0.1,0-0.3-0.1-0.3-0.3l0.2-6.2c0-0.1,0.1-0.3,0.2-0.3l2.3-0.6 c0.6-0.1,1.1-0.1,1.4,0.2c0.3,0.3,0.4,0.7,0.4,1.4c0,0.5-0.1,1-0.4,1.4c-0.2,0.4-0.4,0.6-0.7,0.8C33.8,35.7,33.7,35.9,33.8,36z M39.9,36.5l-0.1,0.8c0,0.1-0.1,0.2-0.2,0.2l-4,0.8c-0.1,0-0.1-0.1-0.1-0.1l0.4-6.3c0-0.1,0.1-0.1,0.2-0.1l1.1,0.1 c0.1,0,0.1,0.1,0,0.1l-0.1,0c-0.1,0-0.2,0.1-0.2,0.2l-0.1,1.6c0,0.1,0.1,0.2,0.1,0.1l2.6-0.6c0.1,0,0.1,0.1,0.1,0.1l-0.1,0.9 c0,0.1-0.1,0.2-0.2,0.2L36.9,35c-0.1,0-0.2,0.1-0.2,0.2l-0.1,1.5c0,0.1,0.1,0.2,0.1,0.1l3-0.6C39.8,36.3,39.9,36.4,39.9,36.5z"></path> <path class="st1" d="M33,33l-1.1,0.3c-0.1,0-0.2,0.1-0.2,0.3L31.6,35c0,0.2,0.1,0.3,0.3,0.3l1.1-0.2c0.3-0.1,0.5-0.2,0.7-0.4 c0.2-0.2,0.2-0.5,0.3-0.8C33.9,33.1,33.6,32.9,33,33z"></path> </g> <path class="st2" d="M56,24.4l0,6.7c0,1.3,0,3.5-2.8,3.2l-4.2-0.7L39.4,32l-1.8-0.3l-8.2-1.3L29,30.3l-0.3,0l-5.1,1.4 c0.1-0.1,0.4-0.3,0.6-0.4c0.4-0.1,0.7-0.2,1.1-0.3c0-0.1,0-0.2,0-0.2c-0.3,0-0.5-0.1-0.8-0.1c-0.6-0.1-1.1-0.2-1.1-1 c0,0,0-0.1-0.1-0.1l0-0.1l-0.8-0.1L5.5,26.5c-2.3-0.4-2.8-2.7-2.8-3.9L2.8,9.2c0-1.4,0.5-3,3-2.3l47.3,13.5 C53.8,20.6,56,21.4,56,24.4z M15.5,24.9c0.2,0,0.4-0.1,0.4-0.3l0.6-11.4c0-0.2-0.2-0.5-0.4-0.5l-1.6-0.4c-0.2,0-0.4,0.1-0.5,0.3 l-1.8,6.1c0,0.2-0.2,0.6-0.2,0.8l-0.3,1.2c0,0.2-0.1,0.2-0.1,0l-0.1-1c0-0.2-0.1-0.6-0.1-0.7c0-0.2-0.1-0.5-0.1-0.7l-1.1-6.6 c0-0.2-0.2-0.4-0.5-0.5l-1.8-0.5c-0.2-0.1-0.4,0.1-0.4,0.3l-0.8,12c0,0.2,0.2,0.4,0.4,0.5l1,0.2c0.2,0,0.4-0.1,0.4-0.3l0.5-7 c0-0.2,0-0.6,0-0.8l0.1-2c0-0.2,0-0.2,0.1,0L9.5,16c0,0.2,0.1,0.6,0.1,0.8l1.1,6.7c0,0.2,0.3,0.4,0.5,0.5l0.6,0.1 c0.2,0,0.4-0.1,0.5-0.3l1.8-5.9c0.1-0.2,0.2-0.6,0.2-0.8l0.7-2.3c0-0.2,0.1-0.2,0.1,0l-0.1,1.3c0,0.2-0.1,0.6-0.1,0.7s0,0.4,0,0.6 l-0.4,6.7c0,0.2,0.2,0.4,0.4,0.5L15.5,24.9z M24.7,26.7c0.2,0,0.4-0.1,0.3-0.3l-2.2-11.6c0-0.2-0.3-0.4-0.5-0.5l-1.2-0.3 c-0.2,0-0.4,0.1-0.5,0.3l-3.4,10.6c-0.1,0.2,0,0.4,0.3,0.5l1,0.2c0.2,0,0.4-0.1,0.5-0.3l0.7-2.2c0.1-0.2,0.3-0.3,0.5-0.3l2.3,0.5 c0.2,0,0.4,0.3,0.5,0.5l0.4,2.4c0,0.2,0.3,0.4,0.5,0.5L24.7,26.7z M21.9,16.9l0.1,0.4c0,0.2,0.1,0.6,0.1,0.8l0.5,2.8 c0,0.2-0.1,0.4-0.3,0.3l-1.6-0.4c-0.2,0-0.3-0.3-0.3-0.5l1-3.3c0.1-0.2,0.2-0.7,0.2-0.8c0-0.1,0.1-0.2,0.1-0.3c0,0,0,0,0.1,0.2 C21.8,16.4,21.8,16.7,21.9,16.9z M27.4,27.2c0.2,0,0.4-0.1,0.4-0.3l0.4-10.7c0-0.2-0.2-0.5-0.4-0.5l-0.8-0.2 c-0.2-0.1-0.4,0.1-0.4,0.3l-0.4,10.8c0,0.2,0.2,0.4,0.4,0.5L27.4,27.2z M35.1,28.8c0.2,0,0.4-0.1,0.4-0.3l0.3-10.3 c0-0.2-0.2-0.5-0.4-0.5l-0.5-0.1c-0.2-0.1-0.4,0.1-0.4,0.3l-0.1,5.7c0,0.2,0,0.6,0,0.8l0,1.4c0,0.2,0,0.2-0.1,0L31.5,17 c-0.1-0.2-0.3-0.4-0.5-0.5l-1-0.3c-0.2-0.1-0.4,0.1-0.4,0.3l-0.4,10.7c0,0.2,0.2,0.5,0.4,0.5l0.6,0.1c0.2,0,0.4-0.1,0.4-0.3l0.2-6 c0-0.2,0-0.6,0-0.8l0-1.3c0-0.2,0-0.2,0.1,0l2.6,8.7c0.1,0.2,0.3,0.4,0.5,0.5L35.1,28.8z M44.6,26.4c-0.1-0.3-0.2-0.7-0.3-0.9 s-0.3-0.5-0.6-0.8c-0.3-0.2-0.7-0.6-1.3-0.9c-0.5-0.3-0.8-0.5-1-0.7c-0.2-0.2-0.3-0.3-0.4-0.5c-0.1-0.2-0.1-0.4-0.1-0.7 c0-0.8,0.4-1.2,1.2-0.9c0.4,0.1,0.7,0.3,0.9,0.6c0.2,0.2,0.3,0.5,0.4,0.9c0,0.1,0.1,0.2,0.2,0.2l0.7,0c0.2,0,0.3-0.1,0.3-0.3 c-0.1-0.8-0.3-1.4-0.7-1.9c-0.4-0.5-0.9-0.9-1.7-1.1c-0.8-0.2-1.4-0.1-1.9,0.3c-0.4,0.4-0.7,1.1-0.7,2c0,0.4,0,0.7,0.1,1 c0,0.3,0.1,0.6,0.2,0.8c0.1,0.2,0.2,0.5,0.4,0.7c0.1,0.2,0.3,0.4,0.5,0.5c0.2,0.1,0.5,0.4,1,0.7c0.6,0.3,0.9,0.6,1.1,0.7 c0.2,0.2,0.3,0.4,0.4,0.6c0.1,0.2,0.1,0.5,0.1,0.8c0,0.9-0.5,1.3-1.4,1.1c-0.5-0.1-0.8-0.3-1.1-0.6c-0.2-0.3-0.4-0.7-0.5-1.1 c0-0.1-0.1-0.2-0.3-0.2c-0.2,0-0.6,0-0.8,0c-0.1,0-0.3,0.1-0.2,0.3c0.1,0.9,0.4,1.6,0.8,2.2c0.5,0.6,1.1,1,1.9,1.1 c0.9,0.2,1.6,0,2-0.4c0.5-0.5,0.7-1.2,0.7-2.2C44.7,27.2,44.7,26.8,44.6,26.4z M50,23.3c0.1,0,0.3-0.1,0.3-0.2l0-1.1 c0-0.1-0.1-0.3-0.3-0.3l-4.5-1.2c-0.1,0-0.3,0-0.3,0.2l0,1.1c0,0.1,0.1,0.3,0.3,0.3l1.3,0.4c0.1,0,0.3,0.2,0.3,0.3L47,30.9 c0,0.1,0.1,0.3,0.3,0.3l0.6,0.1c0.1,0,0.3-0.1,0.3-0.2l0-8c0-0.1,0.1-0.2,0.3-0.2L50,23.3z"></path> <path class="st3" d="M56,24.2v6.6c0,1.3,0,3.5-2.7,3.2l-4.2-0.6l-19.6-3L29,30.3l-6.5-1L5.5,26.7c-2.3-0.4-2.8-2.7-2.8-3.8V9.4 c0-1.4,0.5-3,3-2.3L53,20.3C53.7,20.5,55.9,21.2,56,24.2z"></path> <path class="st4" d="M39.3,32.3L37.5,32l-8.1-1.3l-0.5-0.1l-6,1.7l-8.7,2.4c-0.5,0.1-2,0.6-2.1,2.7v4.6c0,0.1,0,0.2,0,0.3 c0,0.9,0.2,2.1,1.9,1.9l9.7-1.5l1-0.2h0l11.2-1.7l1.8-0.3l0.1,0l0,0l0,0l9.2-1.4c1.6-0.3,1.9-1.8,1.9-2.6c0,0,0,0,0,0v-2.8 L39.3,32.3z"></path> </g> </svg> 