<?xml version="1.0" encoding="UTF-8"?> <!-- Generator: Adobe Illustrator 21.1.0, SVG Export Plug-In . SVG Version: 6.00 Build 0) --> <svg xmlns="http://www.w3.org/2000/svg" xmlns:xlink="http://www.w3.org/1999/xlink" id="Layer_1" x="0px" y="0px" viewBox="0 0 423.6 255.3" style="enable-background:new 0 0 423.6 255.3;" xml:space="preserve"> <style type="text/css"> .st0{fill:#F3F3F3;} .st1{fill:#FFFFFF;stroke:#1078FF;stroke-width:2;stroke-linecap:round;stroke-linejoin:round;stroke-miterlimit:10;} .st2{fill:#CCE7FF;} .st3{fill:#FFFFFF;stroke:#1078FF;stroke-linecap:round;stroke-linejoin:round;stroke-miterlimit:10;} .st4{fill:#007EE5;} .st5{fill:#19283C;} </style> <circle class="st0" cx="212.2" cy="127.7" r="74.4"></circle> <g> <g id="Duotone"> <path class="st1" d="M251.8,151.9l-37.9,20.8c-1.3,0.7-3,0.7-4.3,0l-37.9-20.8c-1.4-0.8-2.3-2.3-2.3-3.9v-41.2 c0-1.6,0.9-3.1,2.3-3.9l38-20.9c1.3-0.7,3-0.7,4.3,0l37.9,20.8c1.4,0.8,2.3,2.3,2.3,3.9V148C254.1,149.6,253.2,151.1,251.8,151.9z "></path> <polygon class="st2" points="169.5,150.6 211.8,173.9 254.1,150.6 245.2,145.1 211.8,163.3 178.4,145.1 "></polygon> <polygon class="st3" points="220.3,144.3 203.3,144.3 182.2,127.3 203.3,110.4 220.3,110.4 241.4,127.3 "></polygon> <polygon class="st4" points="220.3,110.4 213.9,123.1 218.1,127.3 211.8,133.7 209.7,131.6 203.3,144.3 220.3,144.3 241.4,127.3 "></polygon> <path class="st3" d="M207.3,123.1L207.3,123.1c2.3-2.3,6.1-2.3,8.5,0l0,0c2.3,2.3,2.3,6.1,0,8.5l0,0c-2.3,2.3-6.1,2.3-8.5,0l0,0 C204.9,129.2,204.9,125.4,207.3,123.1z"></path> </g> </g> <g> <path class="st5" d="M40.7,33.7H33l-4.4-16.9c-0.2-0.6-0.4-1.8-0.8-3.7s-0.6-3.1-0.7-3.8c-0.1,0.8-0.3,2.1-0.7,3.8s-0.6,3-0.8,3.7 l-4.3,16.8h-7.7l-8.2-32h6.7l4.1,17.5c0.7,3.2,1.2,6,1.6,8.4c0.1-0.8,0.3-2.1,0.6-3.9c0.3-1.8,0.6-3.1,0.9-4.1l4.7-18h6.4l4.7,18 c0.2,0.8,0.5,2,0.8,3.7s0.5,3.1,0.7,4.3c0.1-1.1,0.4-2.6,0.7-4.3c0.3-1.7,0.6-3.1,0.9-4.1l4.1-17.5H49L40.7,33.7z"></path> <path class="st5" d="M77.3,33.7L75,26.1H63.3L61,33.7h-7.3L64.9,1.5h8.3l11.4,32.3L77.3,33.7L77.3,33.7z M73.3,20.4 c-2.2-6.9-3.4-10.8-3.6-11.8c-0.3-0.9-0.5-1.6-0.6-2.2c-0.5,1.9-1.9,6.5-4.2,13.9h8.4C73.3,20.3,73.3,20.4,73.3,20.4z"></path> <path class="st5" d="M105.7,33.7h-6.8V7.3h-8.7V1.6h24.3v5.7h-8.7v26.4H105.7z"></path> <path class="st5" d="M137.7,6.8c-2.6,0-4.5,1-6,2.9c-1.4,1.9-2.1,4.6-2.1,8.1c0,7.2,2.7,10.7,8.1,10.7c2.3,0,5-0.6,8.2-1.7v5.7 c-2.6,1.1-5.6,1.6-8.8,1.6c-4.7,0-8.2-1.4-10.7-4.3c-2.5-2.8-3.7-6.9-3.7-12.2c0-3.3,0.6-6.3,1.8-8.8s3-4.4,5.2-5.8 c2.3-1.3,4.9-2,8-2s6.3,0.8,9.4,2.3l-2.2,5.5c-1.2-0.6-2.4-1.1-3.6-1.5S138.9,6.8,137.7,6.8z"></path> <path class="st5" d="M183.8,33.7H177V19.9h-12.7v13.9h-6.8V1.6h6.8v12.6H177V1.6h6.8V33.7z"></path> <path class="st5" d="M210.4,21.4v12.3h-6.8V1.6h9.4c4.4,0,7.6,0.8,9.7,2.4c2.1,1.6,3.1,4,3.1,7.2c0,1.9-0.5,3.6-1.6,5 c-1,1.5-2.5,2.6-4.4,3.5c4.8,7.2,8,11.9,9.4,14h-7.6L214,21.4H210.4z M210.4,15.9h2.2c2.2,0,3.7-0.4,4.8-1.1c1-0.7,1.5-1.8,1.5-3.4 c0-1.5-0.5-2.6-1.6-3.3c-1-0.6-2.7-1-4.9-1h-2.1v8.8H210.4z"></path> <path class="st5" d="M256.4,33.7h-18.5V1.6h18.5v5.6h-11.7v7.1h10.9v5.6h-10.9v8.3h11.7V33.7z"></path> <path class="st5" d="M286.1,1.6h6.9l-10.9,32.1h-7.4L263.8,1.6h6.9l6,19.1c0.3,1.1,0.7,2.4,1,3.9c0.4,1.5,0.6,2.5,0.7,3.1 c0.2-1.3,0.7-3.7,1.6-7.1L286.1,1.6z"></path> <path class="st5" d="M301.7,33.7V1.6h6.8v32.1C308.5,33.7,301.7,33.7,301.7,33.7z"></path> <path class="st5" d="M339.8,33.7h-18.5V1.6h18.5v5.6h-11.7v7.1H339v5.6h-10.9v8.3h11.7L339.8,33.7L339.8,33.7z"></path> <path class="st5" d="M382.5,33.7h-7.8l-4.4-16.9c-0.2-0.6-0.4-1.8-0.8-3.7s-0.6-3.1-0.7-3.8c-0.1,0.8-0.3,2.1-0.7,3.8 s-0.6,3-0.8,3.7L363,33.6h-7.7l-8.2-32.1h6.7l4.1,17.5c0.7,3.2,1.2,6,1.6,8.4c0.1-0.8,0.3-2.1,0.6-3.9c0.3-1.8,0.6-3.1,0.9-4.1 l4.7-18h6.4l4.7,18c0.2,0.8,0.5,2,0.8,3.7s0.5,3.1,0.7,4.3c0.1-1.1,0.4-2.6,0.7-4.3c0.3-1.7,0.6-3.1,0.9-4.1L384,1.6h6.7 L382.5,33.7z"></path> <path class="st5" d="M418.3,24.8c0,2.9-1,5.2-3.1,6.9s-5,2.5-8.7,2.5c-3.4,0-6.5-0.6-9.1-1.9V26c2.2,1,4,1.6,5.5,2s2.9,0.6,4.1,0.6 c1.5,0,2.6-0.3,3.4-0.9s1.2-1.4,1.2-2.5c0-0.6-0.2-1.2-0.5-1.7c-0.4-0.5-0.9-1-1.5-1.4c-0.7-0.5-2.1-1.2-4.2-2.2 c-2-0.9-3.4-1.8-4.4-2.7s-1.8-1.8-2.4-3c-0.6-1.1-0.9-2.4-0.9-4c0-2.8,1-5.1,2.9-6.7s4.6-2.4,8-2.4c1.7,0,3.3,0.2,4.8,0.6 s3.1,1,4.8,1.7L416,8.7c-1.7-0.7-3.1-1.2-4.3-1.5c-1.1-0.3-2.2-0.4-3.3-0.4c-1.3,0-2.3,0.3-3,0.9s-1,1.4-1,2.4 c0,0.6,0.1,1.1,0.4,1.6c0.3,0.4,0.7,0.9,1.3,1.3c0.6,0.4,2,1.2,4.3,2.3c3,1.4,5.1,2.9,6.2,4.3C417.8,21,418.3,22.7,418.3,24.8z"></path> </g> </svg> 